<svg xmlns="http://www.w3.org/2000/svg" viewBox="0 0 240 280" role="img" aria-label="portrait">
  <defs>
    <linearGradient id="bg" x1="0" y1="0" x2="1" y2="1">
      <stop offset="0%" stop-color="#f8ecd9"/>
      <stop offset="100%" stop-color="#d8c1a2"/>
    </linearGradient>
    <clipPath id="r"><rect x="0" y="0" width="240" height="280" rx="34"/></clipPath>
  </defs>
  <g clip-path="url(#r)">
    <rect width="240" height="280" fill="url(#bg)"/>
    <circle cx="190" cy="48" r="70" fill="rgba(255,255,255,.35)"/>
    <ellipse cx="120" cy="292" rx="130" ry="70" fill="#c6ad86" opacity=".45"/>
    
    <path d="M52 220q68 22 136 0v72H52Z" fill="#617052"/>
    <path d="M86 220q34 18 68 0v60H86Z" fill="#f7efe5"/>
    <path d="M112 223h16l10 55h-36Z" fill="#6c513c"/>
    <rect x="103" y="160" width="34" height="42" rx="16" fill="#8a5d44"/>
    <ellipse cx="120" cy="122" rx="48" ry="58" fill="#8a5d44"/>
    <ellipse cx="102" cy="124" rx="6" ry="7" fill="#342d27"/>
    <ellipse cx="138" cy="124" rx="6" ry="7" fill="#342d27"/>
    <path d="M107 144q13 9 26 0" fill="none" stroke="#7c5040" stroke-width="4" stroke-linecap="round"/>
    
    <path d="M74 96q12-36 46-36 34 0 46 36v18H74Z" fill="#524d49"/>
    <path d="M84 90q-10 22-8 42" fill="none" stroke="#d7d6cf" stroke-width="14" stroke-linecap="round"/>
    <path d="M156 90q10 22 8 42" fill="none" stroke="#d7d6cf" stroke-width="14" stroke-linecap="round"/>
    <path d="M107 141q13 8 26 0" fill="none" stroke="#4e3326" stroke-width="5" stroke-linecap="round"/>
    <path d="M102 149q18 10 36 0" fill="none" stroke="#4e3326" stroke-width="4" stroke-linecap="round"/>
    
  </g>
</svg>