<svg xmlns="http://www.w3.org/2000/svg" viewBox="0 0 240 280" role="img" aria-label="portrait">
  <defs>
    <linearGradient id="bg" x1="0" y1="0" x2="1" y2="1">
      <stop offset="0%" stop-color="#f4e5d4"/>
      <stop offset="100%" stop-color="#d7bb96"/>
    </linearGradient>
    <clipPath id="r"><rect x="0" y="0" width="240" height="280" rx="34"/></clipPath>
  </defs>
  <g clip-path="url(#r)">
    <rect width="240" height="280" fill="url(#bg)"/>
    <circle cx="190" cy="48" r="70" fill="rgba(255,255,255,.35)"/>
    <ellipse cx="120" cy="292" rx="130" ry="70" fill="#c6ad86" opacity=".45"/>
    
    <path d="M52 220q68 22 136 0v72H52Z" fill="#49543f"/>
    <path d="M86 220q34 18 68 0v60H86Z" fill="#f5eee5"/>
    <path d="M112 223h16l10 55h-36Z" fill="#7a5644"/>
    <rect x="103" y="160" width="34" height="42" rx="16" fill="#815741"/>
    <ellipse cx="120" cy="122" rx="48" ry="58" fill="#815741"/>
    <ellipse cx="102" cy="124" rx="6" ry="7" fill="#342d27"/>
    <ellipse cx="138" cy="124" rx="6" ry="7" fill="#342d27"/>
    <path d="M107 144q13 9 26 0" fill="none" stroke="#7c5040" stroke-width="4" stroke-linecap="round"/>
    
    <path d="M74 96q10-40 46-40 36 0 46 40v18H74Z" fill="#4a433f"/>
    <path d="M74 100q-10 8-10 34 0 28 20 50" fill="none" stroke="#d9d7d3" stroke-width="16" stroke-linecap="round"/>
    <path d="M166 100q10 8 10 34 0 28-20 50" fill="none" stroke="#d9d7d3" stroke-width="16" stroke-linecap="round"/>
    <path d="M90 148q10 26 30 32 20-6 30-32" fill="#d9d7d3"/>
    <path d="M105 145q15 8 30 0" fill="none" stroke="#4a2d22" stroke-width="4"/>
    
  </g>
</svg>