<svg xmlns="http://www.w3.org/2000/svg" viewBox="0 0 240 280" role="img" aria-label="portrait">
  <defs>
    <linearGradient id="bg" x1="0" y1="0" x2="1" y2="1">
      <stop offset="0%" stop-color="#f6eadb"/>
      <stop offset="100%" stop-color="#d7bea0"/>
    </linearGradient>
    <clipPath id="r"><rect x="0" y="0" width="240" height="280" rx="34"/></clipPath>
  </defs>
  <g clip-path="url(#r)">
    <rect width="240" height="280" fill="url(#bg)"/>
    <circle cx="190" cy="48" r="70" fill="rgba(255,255,255,.35)"/>
    <ellipse cx="120" cy="292" rx="130" ry="70" fill="#c6ad86" opacity=".45"/>
    
    <path d="M52 220q68 22 136 0v72H52Z" fill="#58634d"/>
    <path d="M86 220q34 18 68 0v60H86Z" fill="#f8f1e8"/>
    <path d="M112 223h16l10 55h-36Z" fill="#c4c1b8"/>
    <rect x="103" y="160" width="34" height="42" rx="16" fill="#d2a786"/>
    <ellipse cx="120" cy="122" rx="48" ry="58" fill="#d2a786"/>
    <ellipse cx="102" cy="124" rx="6" ry="7" fill="#342d27"/>
    <ellipse cx="138" cy="124" rx="6" ry="7" fill="#342d27"/>
    <path d="M107 144q13 9 26 0" fill="none" stroke="#7c5040" stroke-width="4" stroke-linecap="round"/>
    
    <path d="M74 96q14-36 46-36 32 0 46 36v20H74Z" fill="#6b625c"/>
    <path d="M76 102q-8 24 0 54" fill="none" stroke="#b8b0aa" stroke-width="14" stroke-linecap="round"/>
    <path d="M164 102q8 24 0 54" fill="none" stroke="#b8b0aa" stroke-width="14" stroke-linecap="round"/>
    <circle cx="109" cy="176" r="4" fill="#d9d1c7"/><circle cx="121" cy="179" r="4" fill="#d9d1c7"/><circle cx="133" cy="176" r="4" fill="#d9d1c7"/>
    <path d="M103 146q17 10 34 0" fill="none" stroke="#8a5e4c" stroke-width="4"/>
    
  </g>
</svg>