<svg xmlns="http://www.w3.org/2000/svg" viewBox="0 0 240 280" role="img" aria-label="portrait">
  <defs>
    <linearGradient id="bg" x1="0" y1="0" x2="1" y2="1">
      <stop offset="0%" stop-color="#f6ebdc"/>
      <stop offset="100%" stop-color="#d9c2a5"/>
    </linearGradient>
    <clipPath id="r"><rect x="0" y="0" width="240" height="280" rx="34"/></clipPath>
  </defs>
  <g clip-path="url(#r)">
    <rect width="240" height="280" fill="url(#bg)"/>
    <circle cx="190" cy="48" r="70" fill="rgba(255,255,255,.35)"/>
    <ellipse cx="120" cy="292" rx="130" ry="70" fill="#c6ad86" opacity=".45"/>
    
    <path d="M52 220q68 22 136 0v72H52Z" fill="#6d7058"/>
    <path d="M86 220q34 18 68 0v60H86Z" fill="#f7eee4"/>
    <path d="M112 223h16l10 55h-36Z" fill="#a96f5a"/>
    <rect x="103" y="160" width="34" height="42" rx="16" fill="#d1a283"/>
    <ellipse cx="120" cy="122" rx="48" ry="58" fill="#d1a283"/>
    <ellipse cx="102" cy="124" rx="6" ry="7" fill="#342d27"/>
    <ellipse cx="138" cy="124" rx="6" ry="7" fill="#342d27"/>
    <path d="M107 144q13 9 26 0" fill="none" stroke="#7c5040" stroke-width="4" stroke-linecap="round"/>
    
    <path d="M72 88q14-42 48-42 34 0 48 42v20H72Z" fill="#5d4639"/>
    <path d="M68 102q-8 28 2 64" fill="none" stroke="#5d4639" stroke-width="18" stroke-linecap="round"/>
    <path d="M172 102q8 28-2 64" fill="none" stroke="#5d4639" stroke-width="18" stroke-linecap="round"/>
    <path d="M100 146q20 14 40 0" fill="none" stroke="#8a5e4c" stroke-width="4" stroke-linecap="round"/>
    
  </g>
</svg>