<svg xmlns="http://www.w3.org/2000/svg" viewBox="0 0 240 280" role="img" aria-label="portrait">
  <defs>
    <linearGradient id="bg" x1="0" y1="0" x2="1" y2="1">
      <stop offset="0%" stop-color="#f4e5d1"/>
      <stop offset="100%" stop-color="#cfae86"/>
    </linearGradient>
    <clipPath id="r"><rect x="0" y="0" width="240" height="280" rx="34"/></clipPath>
  </defs>
  <g clip-path="url(#r)">
    <rect width="240" height="280" fill="url(#bg)"/>
    <circle cx="190" cy="48" r="70" fill="rgba(255,255,255,.35)"/>
    <ellipse cx="120" cy="292" rx="130" ry="70" fill="#c6ad86" opacity=".45"/>
    
    <path d="M52 220q68 22 136 0v72H52Z" fill="#42523e"/>
    <path d="M86 220q34 18 68 0v60H86Z" fill="#f4eadf"/>
    <path d="M112 223h16l10 55h-36Z" fill="#7a5a44"/>
    <rect x="103" y="160" width="34" height="42" rx="16" fill="#986646"/>
    <ellipse cx="120" cy="122" rx="48" ry="58" fill="#986646"/>
    <ellipse cx="102" cy="124" rx="6" ry="7" fill="#342d27"/>
    <ellipse cx="138" cy="124" rx="6" ry="7" fill="#342d27"/>
    <path d="M107 144q13 9 26 0" fill="none" stroke="#7c5040" stroke-width="4" stroke-linecap="round"/>
    
    <path d="M76 94q16-34 44-34 28 0 44 34v16H76Z" fill="#2f3740"/>
    <path d="M70 84q16-24 50-24 34 0 50 24l-16 12H86Z" fill="#35556b"/>
    <rect x="82" y="76" width="76" height="14" rx="7" fill="#284457"/>
    <path d="M101 146q19 12 38 0" fill="none" stroke="#623f32" stroke-width="4" stroke-linecap="round"/>
    
  </g>
</svg>