<svg xmlns="http://www.w3.org/2000/svg" viewBox="0 0 240 280" role="img" aria-label="portrait">
  <defs>
    <linearGradient id="bg" x1="0" y1="0" x2="1" y2="1">
      <stop offset="0%" stop-color="#f7eedd"/>
      <stop offset="100%" stop-color="#ddc29c"/>
    </linearGradient>
    <clipPath id="r"><rect x="0" y="0" width="240" height="280" rx="34"/></clipPath>
  </defs>
  <g clip-path="url(#r)">
    <rect width="240" height="280" fill="url(#bg)"/>
    <circle cx="190" cy="48" r="70" fill="rgba(255,255,255,.35)"/>
    <ellipse cx="120" cy="292" rx="130" ry="70" fill="#c6ad86" opacity=".45"/>
    
    <path d="M52 220q68 22 136 0v72H52Z" fill="#2f3a2e"/>
    <path d="M86 220q34 18 68 0v60H86Z" fill="#f8f0e6"/>
    <path d="M112 223h16l10 55h-36Z" fill="#6b4b38"/>
    <rect x="103" y="160" width="34" height="42" rx="16" fill="#c78f68"/>
    <ellipse cx="120" cy="122" rx="48" ry="58" fill="#c78f68"/>
    <ellipse cx="102" cy="124" rx="6" ry="7" fill="#342d27"/>
    <ellipse cx="138" cy="124" rx="6" ry="7" fill="#342d27"/>
    <path d="M107 144q13 9 26 0" fill="none" stroke="#7c5040" stroke-width="4" stroke-linecap="round"/>
    
    <path d="M78 94q10-42 42-42t42 42v18H78Z" fill="#342d27"/>
    <rect x="88" y="32" width="64" height="44" rx="6" fill="#2e2724"/>
    <rect x="78" y="72" width="84" height="12" rx="6" fill="#2e2724"/>
    <path d="M86 148q9 32 34 38 25-6 34-38" fill="#342d27"/>
    <path d="M104 146q16 8 32 0" fill="none" stroke="#1f1714" stroke-width="4"/>
    
  </g>
</svg>