<svg xmlns="http://www.w3.org/2000/svg" viewBox="0 0 240 280" role="img" aria-label="portrait">
  <defs>
    <linearGradient id="bg" x1="0" y1="0" x2="1" y2="1">
      <stop offset="0%" stop-color="#f3e7d6"/>
      <stop offset="100%" stop-color="#ccb28c"/>
    </linearGradient>
    <clipPath id="r"><rect x="0" y="0" width="240" height="280" rx="34"/></clipPath>
  </defs>
  <g clip-path="url(#r)">
    <rect width="240" height="280" fill="url(#bg)"/>
    <circle cx="190" cy="48" r="70" fill="rgba(255,255,255,.35)"/>
    <ellipse cx="120" cy="292" rx="130" ry="70" fill="#c6ad86" opacity=".45"/>
    
    <path d="M52 220q68 22 136 0v72H52Z" fill="#4f5a45"/>
    <path d="M86 220q34 18 68 0v60H86Z" fill="#f8f1e8"/>
    <path d="M112 223h16l10 55h-36Z" fill="#6e513d"/>
    <rect x="103" y="160" width="34" height="42" rx="16" fill="#d0a079"/>
    <ellipse cx="120" cy="122" rx="48" ry="58" fill="#d0a079"/>
    <ellipse cx="102" cy="124" rx="6" ry="7" fill="#342d27"/>
    <ellipse cx="138" cy="124" rx="6" ry="7" fill="#342d27"/>
    <path d="M107 144q13 9 26 0" fill="none" stroke="#7c5040" stroke-width="4" stroke-linecap="round"/>
    
    <path d="M74 96q14-38 46-38 32 0 46 38v16H74Z" fill="#5a4334"/>
    <circle cx="101" cy="124" r="16" fill="none" stroke="#8a7a63" stroke-width="4"/>
    <circle cx="139" cy="124" r="16" fill="none" stroke="#8a7a63" stroke-width="4"/>
    <path d="M117 124h6" stroke="#8a7a63" stroke-width="4"/>
    <path d="M86 143q14 12 34 12 20 0 34-12-8 22-34 24-26-2-34-24Z" fill="#6f4c39"/>
    <path d="M102 148q18 10 36 0" fill="none" stroke="#543528" stroke-width="3"/>
    
  </g>
</svg>