<svg xmlns="http://www.w3.org/2000/svg" viewBox="0 0 240 280" role="img" aria-label="portrait">
  <defs>
    <linearGradient id="bg" x1="0" y1="0" x2="1" y2="1">
      <stop offset="0%" stop-color="#efe1cb"/>
      <stop offset="100%" stop-color="#ceb38e"/>
    </linearGradient>
    <clipPath id="r"><rect x="0" y="0" width="240" height="280" rx="34"/></clipPath>
  </defs>
  <g clip-path="url(#r)">
    <rect width="240" height="280" fill="url(#bg)"/>
    <circle cx="190" cy="48" r="70" fill="rgba(255,255,255,.35)"/>
    <ellipse cx="120" cy="292" rx="130" ry="70" fill="#c6ad86" opacity=".45"/>
    
    <path d="M52 220q68 22 136 0v72H52Z" fill="#56624d"/>
    <path d="M86 220q34 18 68 0v60H86Z" fill="#efe3d4"/>
    <path d="M112 223h16l10 55h-36Z" fill="#a86d54"/>
    <rect x="103" y="160" width="34" height="42" rx="16" fill="#6a4633"/>
    <ellipse cx="120" cy="122" rx="48" ry="58" fill="#6a4633"/>
    <ellipse cx="102" cy="124" rx="6" ry="7" fill="#342d27"/>
    <ellipse cx="138" cy="124" rx="6" ry="7" fill="#342d27"/>
    <path d="M107 144q13 9 26 0" fill="none" stroke="#7c5040" stroke-width="4" stroke-linecap="round"/>
    
    <path d="M72 118q0-56 48-56t48 56v10H72Z" fill="#5a4030" opacity=".6"/>
    <path d="M58 92q26-46 62-46 36 0 62 46-10 12-16 40H74q-6-28-16-40Z" fill="#758262"/>
    <path d="M84 148q13 12 36 12 23 0 36-12-4 24-36 26-32-2-36-26Z" fill="#5a4030" opacity=".9"/>
    
  </g>
</svg>